HIERARCHY
ROOT Hips
{
	OFFSET 0.000000 0.000000 0.000000
	CHANNELS 6 Xposition Yposition Zposition Xrotation Yrotation Zrotation
	JOINT LeftUpLeg_virtual
	{
		OFFSET 0.000000 0.000000 0.000000
		CHANNELS 3 Xrotation Yrotation Zrotation
		JOINT LeftUpLeg
		{
			OFFSET 13.026900 -6.336304 -1.092800
			CHANNELS 3 Xrotation Yrotation Zrotation
			JOINT LeftLeg
			{
				OFFSET 0.524474 -46.096886 9.782700
				CHANNELS 3 Xrotation Yrotation Zrotation
				JOINT LeftFoot
				{
					OFFSET -0.524474 -53.427422 -12.948200
					CHANNELS 3 Xrotation Yrotation Zrotation
					JOINT LeftToeBase
					{
						OFFSET 0.192200 -14.009700 16.364100
						CHANNELS 3 Xrotation Yrotation Zrotation
						JOINT LeftToe_End
						{
							OFFSET -1.784700 -0.561700 9.474800
							CHANNELS 3 Xrotation Yrotation Zrotation
							End Site
							{
								OFFSET 0 0 0
							}
						}
					}
				}
			}
		}
	}
	JOINT RightUpLeg_virtual
	{
		OFFSET 0.000000 0.000000 0.000000
		CHANNELS 3 Xrotation Yrotation Zrotation
		JOINT RightUpLeg
		{
			OFFSET -12.883000 -6.336304 -1.092800
			CHANNELS 3 Xrotation Yrotation Zrotation
			JOINT RightLeg
			{
				OFFSET -0.524587 -46.096825 9.782800
				CHANNELS 3 Xrotation Yrotation Zrotation
				JOINT RightFoot
				{
					OFFSET 0.524587 -53.427383 -12.948300
					CHANNELS 3 Xrotation Yrotation Zrotation
					JOINT RightToeBase
					{
						OFFSET -0.192200 -14.009700 16.364100
						CHANNELS 3 Xrotation Yrotation Zrotation
						JOINT RightToe_End
						{
							OFFSET 1.784700 -0.561700 9.474800
							CHANNELS 3 Xrotation Yrotation Zrotation
							End Site
							{
								OFFSET 0 0 0
							}
						}
					}
				}
			}
		}
	}
	JOINT Spine_virtual
	{
		OFFSET 0.000000 0.000000 0.000000
		CHANNELS 3 Xrotation Yrotation Zrotation
		JOINT Spine
		{
			OFFSET 0.072000 7.257294 -0.789700
			CHANNELS 3 Xrotation Yrotation Zrotation
			JOINT Spine1
			{
				OFFSET 0.000000 12.508769 -0.658067
				CHANNELS 3 Xrotation Yrotation Zrotation
				JOINT Spine1_split
				{
					OFFSET 0.000000 12.508769 -0.658067
					CHANNELS 3 Xrotation Yrotation Zrotation
					JOINT Spine2
					{
						OFFSET 0.000000 12.508769 -0.658067
						CHANNELS 3 Xrotation Yrotation Zrotation
						JOINT Neck_virtual
						{
							OFFSET 0.000000 0.000000 0.000000
							CHANNELS 3 Xrotation Yrotation Zrotation
							JOINT Neck
							{
								OFFSET 0.000000 14.033295 7.520400
								CHANNELS 3 Xrotation Yrotation Zrotation
								JOINT Head
								{
									OFFSET 0.000000 8.198502 5.703100
									CHANNELS 3 Xrotation Yrotation Zrotation
									JOINT HeadTop_End
									{
										OFFSET 0.000000 17.760803 13.332701
										CHANNELS 3 Xrotation Yrotation Zrotation
										End Site
										{
											OFFSET 0 0 0
										}
									}
								}
							}
						}
						JOINT LeftShoulder_virtual
						{
							OFFSET 0.000000 0.000000 0.000000
							CHANNELS 3 Xrotation Yrotation Zrotation
							JOINT LeftShoulder
							{
								OFFSET 6.292450 5.785301 -0.669000
								CHANNELS 3 Xrotation Yrotation Zrotation
								JOINT LeftShoulder_split
								{
									OFFSET 6.292450 5.785301 -0.669000
									CHANNELS 3 Xrotation Yrotation Zrotation
									JOINT LeftArm
									{
										OFFSET 13.907140 -6.093903 1.965100
										CHANNELS 3 Xrotation Yrotation Zrotation
										JOINT LeftForeArm
										{
											OFFSET 34.140198 0.000000 0.000000
											CHANNELS 3 Xrotation Yrotation Zrotation
											JOINT LeftHand
											{
												OFFSET 40.960209 0.000000 0.000000
												CHANNELS 3 Xrotation Yrotation Zrotation
												End Site
												{
													OFFSET 0 0 0
												}
											}
										}
									}
								}
							}
						}
						JOINT RightShoulder_virtual
						{
							OFFSET 0.000000 0.000000 0.000000
							CHANNELS 3 Xrotation Yrotation Zrotation
							JOINT RightShoulder
							{
								OFFSET -6.292450 5.785301 -0.669000
								CHANNELS 3 Xrotation Yrotation Zrotation
								JOINT RightShoulder_split
								{
									OFFSET -6.292450 5.785301 -0.669000
									CHANNELS 3 Xrotation Yrotation Zrotation
									JOINT RightArm
									{
										OFFSET -13.907140 -6.093903 1.965100
										CHANNELS 3 Xrotation Yrotation Zrotation
										JOINT RightForeArm
										{
											OFFSET -34.140198 0.000000 0.000000
											CHANNELS 3 Xrotation Yrotation Zrotation
											JOINT RightHand
											{
												OFFSET -40.960209 0.000000 0.000000
												CHANNELS 3 Xrotation Yrotation Zrotation
												End Site
												{
													OFFSET 0 0 0
												}
											}
										}
									}
								}
							}
						}
					}
				}
			}
		}
	}
}
MOTION
Frames: 4
Frame Time: 0.03333333
1.462745 12.238052 -2.822792 0.000000 0.000000 0.000000 -90.634063 -3.259145 -1.652926 -23.764492 11.510861 -2.398221 29.185207 -7.395242 -5.629316 3.395794 6.847172 5.138179 7.303016 -0.400639 1.314170 0.000000 0.000000 0.000000 -92.063546 -3.839677 -5.150329 -8.818664 -6.698735 -5.587034 12.875006 0.966022 4.298720 10.991881 -4.439304 25.391631 -1.864004 -0.449194 1.016963 0.000000 0.000000 0.000000 -88.420726 -3.853895 -4.642582 4.578636 2.596266 1.212099 -1.176270 1.081714 -0.055550 0.389669 0.777109 -0.290885 0.000000 0.000000 0.000000 -1.862171 0.494068 0.238516 2.601377 0.862355 -0.191713 10.432625 -5.061732 10.256766 0.000000 0.000000 0.000000 -2.611040 1.081517 0.185053 0.993429 -13.948752 -3.591634 -2.783712 -0.036798 -4.107155 27.377772 0.144918 -68.999527 -178.856563 -39.077244 -178.212312 0.000000 0.000000 0.000000 -1.840171 0.778058 -0.740709 0.955817 1.999299 0.587675 1.206327 4.255666 0.262906 11.885380 7.193717 73.174275 -179.755785 46.358266 -179.324977 0.000000 0.000000 0.000000 
1.463326 12.236870 -2.821896 0.000000 0.000000 0.000000 -90.632806 -3.259400 -1.652846 -23.766832 11.508727 -2.399699 29.187850 -7.394160 -5.629187 3.396659 6.847356 5.136589 7.302849 -0.400760 1.313717 0.000000 0.000000 0.000000 -92.060698 -3.837060 -5.146522 -8.818573 -6.702321 -5.588225 12.872116 0.966561 4.299421 10.993456 -4.441113 25.389726 -1.865337 -0.449478 1.017413 0.000000 0.000000 0.000000 -88.419907 -3.854975 -4.644519 4.579980 2.595654 1.211636 -1.178158 1.081445 -0.055608 0.391020 0.784776 -0.292237 0.000000 0.000000 0.000000 -1.863527 0.493177 0.237901 2.597857 0.861743 -0.192461 10.434413 -5.061133 10.254097 0.000000 0.000000 0.000000 -2.614387 1.081778 0.184198 0.995404 -13.948607 -3.585195 -2.787050 -0.037079 -4.116454 27.380321 0.151358 -69.008304 -178.852506 -39.065656 -178.207900 0.000000 0.000000 0.000000 -1.841771 0.777822 -0.741193 0.953544 1.996577 0.583482 1.216228 4.261693 0.261503 11.893075 7.191279 73.173804 -179.756864 46.340614 -179.324964 0.000000 0.000000 0.000000 
1.463500 12.234528 -2.820389 0.000000 0.000000 0.000000 -90.629930 -3.258718 -1.652476 -23.772325 11.507446 -2.400578 29.195609 -7.392580 -5.629393 3.396445 6.847519 5.136357 7.302894 -0.400724 1.313949 0.000000 0.000000 0.000000 -92.056190 -3.833272 -5.142033 -8.819312 -6.709457 -5.589312 12.869050 0.964998 4.300353 10.993773 -4.446974 25.383099 -1.863510 -0.449950 1.019093 0.000000 0.000000 0.000000 -88.418199 -3.856621 -4.647284 4.580020 2.593130 1.212884 -1.180404 1.080879 -0.056878 0.390035 0.790535 -0.294171 0.000000 0.000000 0.000000 -1.863855 0.492827 0.236061 2.597020 0.863045 -0.190343 10.435265 -5.062199 10.255885 0.000000 0.000000 0.000000 -2.617580 1.082170 0.183355 0.998703 -13.948676 -3.564608 -2.788469 -0.035315 -4.124790 27.386275 0.164376 -69.026862 -178.847984 -39.048953 -178.204239 0.000000 0.000000 0.000000 -1.844202 0.777186 -0.742379 0.951252 1.990468 0.576249 1.228924 4.274184 0.261712 11.903248 7.191105 73.175122 -179.755211 46.323340 -179.324595 0.000000 0.000000 0.000000 
1.463498 12.231361 -2.818657 0.000000 0.000000 0.000000 -90.625539 -3.258052 -1.652125 -23.779092 11.506754 -2.401308 29.206087 -7.390693 -5.629348 3.395080 6.847873 5.136762 7.302319 -0.400572 1.314879 0.000000 0.000000 0.000000 -92.049920 -3.828833 -5.137168 -8.821839 -6.719301 -5.590668 12.866129 0.962929 4.301517 10.994452 -4.454854 25.374713 -1.858925 -0.450445 1.021313 0.000000 0.000000 0.000000 -88.415897 -3.858358 -4.649879 4.578068 2.589059 1.215611 -1.182907 1.079955 -0.058597 0.388991 0.793603 -0.294745 0.000000 0.000000 0.000000 -1.863085 0.493195 0.233823 2.598989 0.865991 -0.186459 10.433204 -5.066252 10.261906 0.000000 0.000000 0.000000 -2.620484 1.083010 0.183166 1.002234 -13.946855 -3.538038 -2.792115 -0.033907 -4.129506 27.392754 0.180032 -69.046826 -178.843995 -39.034685 -178.201083 0.000000 0.000000 0.000000 -1.847401 0.776421 -0.743588 0.949100 1.982500 0.568562 1.241426 4.289337 0.263186 11.914475 7.191117 73.174904 -179.750799 46.311340 -179.324704 0.000000 0.000000 0.000000 
